<svg id="Capa_1" data-name="Capa 1" xmlns="http://www.w3.org/2000/svg" viewBox="0 0 260.65 136.4"><defs><style>.cls-1{isolation:isolate;}.cls-2{fill:#fff;}</style></defs><g class="cls-1"><path class="cls-2" d="M259.28,264.12a60.1,60.1,0,0,1-24.7,24.21Q218.47,297,196.67,297H145.15V160.61h51.52q22,0,38,8.49A59.35,59.35,0,0,1,259.28,193q8.58,15.45,8.58,35.5T259.28,264.12Zm-35.5-6.85q10.69-10.21,10.7-28.75t-10.7-28.74q-10.71-10.23-30-10.23H178.15V267.5h15.62Q213.06,267.5,223.78,257.27Z" transform="translate(-145.15 -160.61)"/><path class="cls-2" d="M350.82,227.37l55,69.65H365.87l-46.3-61.16V297h-33V160.61h33v60l46.68-60h39.56Z" transform="translate(-145.15 -160.61)"/></g></svg>